<?xml version="1.0" encoding="UTF-8" standalone="no"?>
<!-- Created with Inkscape (http://www.inkscape.org/) -->

<svg
   width="46.796631mm"
   height="46.797188mm"
   viewBox="0 0 46.796631 46.797188"
   version="1.1"
   id="svg5"
   xmlns="http://www.w3.org/2000/svg"
   xmlns:svg="http://www.w3.org/2000/svg">
  <defs
     id="defs2" />
  <g
     id="layer1"
     transform="translate(153.77195,-97.920507)">
    <g
       id="g673"
       transform="translate(10.769957,5.2781475)">
      <path
         id="circle658"
         style="fill:#ff2a2a;stroke:none;stroke-width:0.264583"
         d="m 141.14384,-92.642407 a 23.398493,23.398493 0 0 0 1.60249,-0.05943 23.398493,23.398493 0 0 1 -1.60249,0.05943 z m -5.2e-4,0 a 23.398493,23.398493 0 0 1 -1.68723,-0.06253 23.398493,23.398493 0 0 0 1.68723,0.06253 z m -1.72496,-0.06511 a 23.398493,23.398493 0 0 1 -1.68155,-0.186035 23.398493,23.398493 0 0 0 7.20008,-16.856338 23.398493,23.398493 0 0 0 -1.25832,-7.56543 23.398493,23.398493 0 0 0 1.71721,0.0646 23.398493,23.398493 0 0 0 17.36224,-7.72046 23.398493,23.398493 0 0 1 0.5302,1.40611 23.398493,23.398493 0 0 0 -22.14438,-15.87448 23.398493,23.398493 0 0 0 -23.39857,23.39857 23.398493,23.398493 0 0 0 21.67309,23.333463 z m 3.83698,-0.04082 a 23.398493,23.398493 0 0 0 1.09347,-0.12299 23.398493,23.398493 0 0 1 -1.09347,0.12299 z m 1.67897,-0.21239 a 23.398493,23.398493 0 0 0 1.05316,-0.199471 23.398493,23.398493 0 0 1 -1.05316,0.199471 z m 1.58801,-0.314193 a 23.398493,23.398493 0 0 0 1.30638,-0.349849 23.398493,23.398493 0 0 1 -1.30638,0.349849 z m 1.5503,-0.418062 a 23.398493,23.398493 0 0 0 1.51205,-0.529167 23.398493,23.398493 0 0 1 -1.51205,0.529167 z m 1.93321,-0.703833 a 23.398493,23.398493 0 0 0 1.06454,-0.464571 23.398493,23.398493 0 0 1 -1.06454,0.464571 z m 1.5627,-0.706934 a 23.398493,23.398493 0 0 0 0.97048,-0.51263 23.398493,23.398493 0 0 1 -0.97048,0.51263 z m 1.44487,-0.780314 a 23.398493,23.398493 0 0 0 1.05678,-0.664042 23.398493,23.398493 0 0 1 -1.05678,0.664042 z m 1.36167,-0.861446 a 23.398493,23.398493 0 0 0 1.28261,-0.946195 23.398493,23.398493 0 0 1 -1.28261,0.946195 z m 1.61851,-1.225765 a 23.398493,23.398493 0 0 0 0.89348,-0.769979 23.398493,23.398493 0 0 1 -0.89348,0.769979 z m 1.29966,-1.151868 a 23.398493,23.398493 0 0 0 0.76843,-0.768428 23.398493,23.398493 0 0 1 -0.76843,0.768428 z m 1.14929,-1.173048 a 23.398493,23.398493 0 0 0 0.78134,-0.90796 23.398493,23.398493 0 0 1 -0.78134,0.90796 z m 1.04696,-1.2268 a 23.398493,23.398493 0 0 0 0.94981,-1.28623 23.398493,23.398493 0 0 1 -0.94981,1.28623 z m 1.1467,-1.59112 a 23.398493,23.398493 0 0 0 0.66353,-1.05627 23.398493,23.398493 0 0 1 -0.66353,1.05627 z m 0.93431,-1.53582 a 23.398493,23.398493 0 0 0 0.50695,-0.95963 23.398493,23.398493 0 0 1 -0.50695,0.95963 z m 0.75551,-1.4702 a 23.398493,23.398493 0 0 0 0.44958,-1.03043 23.398493,23.398493 0 0 1 -0.44958,1.03043 z m 0.64027,-1.49035 a 23.398493,23.398493 0 0 0 0.52503,-1.5012 23.398493,23.398493 0 0 1 -0.52503,1.5012 z m 0.59118,-1.73787 a 23.398493,23.398493 0 0 0 0.35398,-1.32189 23.398493,23.398493 0 0 1 -0.35398,1.32189 z m 0.46302,-1.82987 a 23.398493,23.398493 0 0 0 0.20464,-1.08158 23.398493,23.398493 0 0 1 -0.20464,1.08158 z m 0.29197,-1.65364 a 23.398493,23.398493 0 0 0 0.12351,-1.09709 23.398493,23.398493 0 0 1 -0.12351,1.09709 z m 0.17002,-1.60611 a 23.398493,23.398493 0 0 0 0.0594,-1.603 23.398493,23.398493 0 0 1 -0.0594,1.603 z m 0.0594,-1.603 a 23.398493,23.398493 0 0 0 -0.0512,-1.50843 23.398493,23.398493 0 0 1 0.0512,1.50843 z m -0.0636,-1.64383 a 23.398493,23.398493 0 0 0 -0.13591,-1.36839 23.398493,23.398493 0 0 1 0.13591,1.36839 z m -0.16071,-1.52859 a 23.398493,23.398493 0 0 0 -0.22324,-1.34565 23.398493,23.398493 0 0 1 0.22324,1.34565 z m -0.24908,-1.46761 a 23.398493,23.398493 0 0 0 -0.32091,-1.37097 23.398493,23.398493 0 0 1 0.32091,1.37097 z m -0.34313,-1.45107 a 23.398493,23.398493 0 0 0 -0.42272,-1.39165 23.398493,23.398493 0 0 1 0.42272,1.39165 z"
         transform="scale(-1)" />
      <path
         id="path666"
         style="fill:#ffffff;stroke:none;stroke-width:0.296295"
         d="m -138.33886,92.6424 a 26.202939,26.202939 0 0 0 -26.20304,26.20304 26.202939,26.202939 0 0 0 1.99768,10.00053 26.202939,26.202939 0 0 1 19.44321,-8.6458 26.202939,26.202939 0 0 1 1.92303,0.0723 26.202939,26.202939 0 0 1 -1.40914,-8.47219 26.202939,26.202939 0 0 1 8.06306,-18.876668 26.202939,26.202939 0 0 0 -3.8148,-0.281252 z" />
      <path
         id="path662"
         style="fill:#37c837;stroke:none;stroke-width:0.264583"
         d="m -141.14332,92.6424 a 23.398493,23.398493 0 0 0 -23.39858,23.39858 23.398493,23.398493 0 0 0 1.78387,8.9302 23.398493,23.398493 0 0 1 17.36225,-7.72046 23.398493,23.398493 0 0 1 1.71721,0.0646 23.398493,23.398493 0 0 1 -1.25832,-7.56543 23.398493,23.398493 0 0 1 7.20008,-16.85634 23.398493,23.398493 0 0 0 -3.40651,-0.25115 z" />
    </g>
  </g>
</svg>
